# File created by Blade
# Date/Time:  Wed Jan 28 15:39:58 2015
#---------------------------------------------------------
:version 1.10
:name HOM
:units
  mass 1.0
  length 1.000000
  angle deg
:documentation
     Acclaim Skeleton File
:root
   axis xyz
   order TX TY TZ RX RY RZ
   position 0.000000 0.000000 0.000000
   orientation 0 0 0
:bonedata
   begin
      id 1
      name Spine_dum
      direction 0.000000 1.000000 0.000000
      length 6.864287
      axis 0.0 0.0 0.0 xyz
   end
   begin
      id 2
      name LeftUpLeg_dum
      direction 1.000000 0.000000 0.000000
      length 4.117376
      axis 0.0 0.0 0.0 xyz
   end
   begin
      id 3
      name RightUpLeg_dum
      direction -1.000000 0.000000 0.000000
      length 4.117376
      axis 0.0 0.0 0.0 xyz
   end
   begin
      id 4
      name Spine
      direction 0.000000 1.000000 0.000000
      length 0.000000
      axis 0.0 0.0 0.0 xyz
      dof rx ry rz
   end
   begin
      id 5
      name Spine_dum1
      direction 0.000000 1.000000 0.000000
      length 15.393827
      axis 0.0 0.0 0.0 xyz
   end
   begin
      id 6
      name Spine_dum2
      direction 0.000000 1.000000 0.000000
      length 9.314826
      axis 0.0 0.0 0.0 xyz
   end
   begin
      id 7
      name Spine_dum3
      direction 0.000000 1.000000 0.000000
      length 9.314826
      axis 0.0 0.0 0.0 xyz
   end
   begin
      id 8
      name Head
      direction 0.000000 1.000000 0.000000
      length 4.527550
      axis 0.0 0.0 0.0 xyz
      dof rx ry rz
   end
   begin
      id 9
      name LeftShoulder
      direction 1.000000 0.000000 0.000000
      length 8.275398
      axis 0.0 0.0 -90.0 xyz
      dof rx ry rz
   end
   begin
      id 10
      name LeftArm
      direction 1.000000 0.000000 0.000000
      length 12.002200
      axis 0.0 0.0 -90.0 xyz
      dof rx ry rz
   end
   begin
      id 11
      name LeftForeArm
      direction 1.000000 0.000000 0.000000
      length 10.144633
      axis 0.0 0.0 -90.0 xyz
      dof ry rz rx
   end
   begin
      id 12
      name LeftHand
      direction 0.000000 0.000000 0.000000
      length 0.000000
      axis 0.0 0.0 -90.0 xyz
      dof rx ry rz
   end
   begin
      id 13
      name LeftHand_dum1
      direction 0.000000 0.000000 0.000000
      length 0.000000
      axis 0.0 0.0 -90.0 xyz
   end
   begin
      id 14
      name LeftHand_dum2
      direction 1.000000 0.000000 0.000000
      length 3.937000
      axis 0.0 0.0 -90.0 xyz
   end
   begin
      id 15
      name LeftHandThumb1
      direction 0.000000 0.000000 1.000000
      length 3.937000
      axis 0.0 0.0 -90.0 xyz
      dof rx rz ry
   end
   begin
      id 16
      name RightShoulder
      direction -1.000000 0.000000 0.000000
      length 8.275398
      axis 0.0 0.0 90.0 xyz
      dof rx ry rz
   end
   begin
      id 17
      name RightArm
      direction -1.000000 0.000000 0.000000
      length 12.002200
      axis 0.0 0.0 90.0 xyz
      dof rx ry rz
   end
   begin
      id 18
      name RightForeArm
      direction -1.000000 0.000000 0.000000
      length 10.144633
      axis 0.0 0.0 90.0 xyz
      dof ry rz rx
   end
   begin
      id 19
      name RightHand
      direction 0.000000 0.000000 0.000000
      length 0.000000
      axis 0.0 0.0 90.0 xyz
      dof rx ry rz
   end
   begin
      id 20
      name RightHand_dum1
      direction 0.000000 0.000000 0.000000
      length 0.000000
      axis 0.0 0.0 90.0 xyz
   end
   begin
      id 21
      name RightHand_dum2
      direction -1.000000 0.000000 0.000000
      length 3.937000
      axis 0.0 0.0 90.0 xyz
   end
   begin
      id 22
      name RightHandThumb1
      direction 0.000000 0.000000 1.000000
      length 3.937000
      axis 0.0 0.0 90.0 xyz
      dof rx rz ry
   end
   begin
      id 23
      name LeftUpLeg
      direction 0.000000 -1.000000 0.000000
      length 19.394322
      axis 0.0 0.0 0.0 xyz
      dof rx ry rz
   end
   begin
      id 24
      name LeftLeg
      direction 0.000000 -1.000000 0.000000
      length 17.609563
      axis 0.0 0.0 0.0 xyz
      dof rx ry rz
   end
   begin
      id 25
      name LeftFoot
      direction 0.000000 -0.258819 0.965926
      length 6.085393
      axis 15.0 0.0 0.0 xyz
      dof rx ry rz
   end
   begin
      id 26
      name LeftToeBase
      direction 0.000000 0.000000 1.000000
      length 2.952750
      axis 0.0 0.0 0.0 xyz
      dof rx ry rz
   end
   begin
      id 27
      name RightUpLeg
      direction 0.000000 -1.000000 0.000000
      length 19.394322
      axis 0.0 0.0 0.0 xyz
      dof rx ry rz
   end
   begin
      id 28
      name RightLeg
      direction 0.000000 -1.000000 0.000000
      length 17.609563
      axis 0.0 0.0 0.0 xyz
      dof rx ry rz
   end
   begin
      id 29
      name RightFoot
      direction 0.000000 -0.258819 0.965926
      length 6.085393
      axis 15.0 0.0 0.0 xyz
      dof rx ry rz
   end
   begin
      id 30
      name RightToeBase
      direction 0.000000 0.000000 1.000000
      length 2.952750
      axis 0.0 0.0 0.0 xyz
      dof rx ry rz
   end
:hierarchy
   begin
      root Spine_dum LeftUpLeg_dum RightUpLeg_dum
      Spine_dum Spine
      LeftUpLeg_dum LeftUpLeg
      RightUpLeg_dum RightUpLeg
      Spine Spine_dum1 Spine_dum2 Spine_dum3
      Spine_dum1 Head
      Spine_dum2 LeftShoulder
      Spine_dum3 RightShoulder
      LeftShoulder LeftArm
      LeftArm LeftForeArm
      LeftForeArm LeftHand
      LeftHand LeftHand_dum1 LeftHand_dum2
      LeftHand_dum1 LeftHandThumb1
      RightShoulder RightArm
      RightArm RightForeArm
      RightForeArm RightHand
      RightHand RightHand_dum1 RightHand_dum2
      RightHand_dum1 RightHandThumb1
      LeftUpLeg LeftLeg
      LeftLeg LeftFoot
      LeftFoot LeftToeBase
      RightUpLeg RightLeg
      RightLeg RightFoot
      RightFoot RightToeBase
   end

# File created by Blade
# Date/Time:  Wed Jan 28 15:40:07 2015
# Frame Rate: 120.000 fps
#------------------------------------------------------
:FULLY-SPECIFIED
:DEGREES
577
root -7.313001 40.583576 -12.493678 5.564413 -47.074509 45.776831
Spine 5.643483 5.818744 15.061273
Head -8.119177 -17.037187 -20.712789
LeftShoulder -19.721465 18.779621 -9.580141
LeftArm 6.220325 6.299797 -82.201225
LeftForeArm -2.245810 -0.000000 9.855484
LeftHand -1.535789 -0.000000 -14.472707
LeftHandThumb1 -26.253704 0.000000 33.147579
RightShoulder -5.992347 9.428309 -39.992125
RightArm 20.682203 56.014663 45.681225
RightForeArm -10.162881 0.000000 76.400917
RightHand -15.364942 -0.000000 -45.144343
RightHandThumb1 -24.326973 -0.000000 -32.862282
LeftUpLeg -13.514440 -5.762355 18.645874
LeftLeg 148.232635 -0.000000 -0.000000
LeftFoot 19.643241 -0.294686 -26.674356
LeftToeBase 5.086189 -0.000000 -0.000000
RightUpLeg -46.405935 -12.148676 -17.134727
RightLeg 19.933120 -0.000000 -0.000000
RightFoot -25.098730 -14.766806 17.894894
RightToeBase 13.655836 -0.000000 -0.000000
578
root -7.312100 40.576460 -12.519665 5.499684 -47.122368 45.781090
Spine 5.814914 5.779712 15.203486
Head -8.255987 -17.395858 -20.593659
LeftShoulder -19.703845 18.719739 -9.598388
LeftArm 6.252534 6.233239 -82.341892
LeftForeArm -2.155451 0.000000 9.842509
LeftHand -1.550033 -0.000000 -14.418222
LeftHandThumb1 -26.253704 0.000000 33.147579
RightShoulder -6.003637 9.507912 -40.091434
RightArm 20.438274 55.901689 45.366556
RightForeArm -10.212027 -0.000000 76.676923
RightHand -15.641082 0.000000 -45.338188
RightHandThumb1 -24.326973 -0.000000 -32.862282
LeftUpLeg -13.537776 -5.658507 18.670045
LeftLeg 148.337590 -0.000000 -0.000000
LeftFoot 19.582015 -0.227384 -27.011976
LeftToeBase 5.104651 -0.000000 -0.000000
RightUpLeg -46.425439 -12.148835 -17.074674
RightLeg 19.980264 -0.000000 -0.000000
RightFoot -25.306215 -14.529025 18.272775
RightToeBase 14.144349 -0.000000 -0.000000
579
root -7.310633 40.571145 -12.546631 5.373289 -47.169689 45.883676
Spine 5.964604 5.731401 15.239204
Head -8.379373 -17.762578 -20.407159
LeftShoulder -19.663312 18.603017 -9.593090
LeftArm 6.244787 6.252840 -82.449673
LeftForeArm -2.286980 0.000000 9.744935
LeftHand -1.339437 -0.000000 -14.290044
LeftHandThumb1 -26.253704 0.000000 33.147579
RightShoulder -6.011930 9.490788 -40.126630
RightArm 20.464045 55.890520 45.289858
RightForeArm -10.251844 -0.000000 76.957168
RightHand -15.864624 -0.000000 -45.514574
RightHandThumb1 -24.326973 -0.000000 -32.862282
LeftUpLeg -13.533538 -5.138232 18.499910
LeftLeg 148.542618 -0.000000 -0.000000
LeftFoot 18.476372 0.367868 -26.591518
LeftToeBase 6.714564 -0.000000 -0.000000
RightUpLeg -46.450281 -12.142203 -17.086754
RightLeg 20.016727 -0.000000 -0.000000
RightFoot -25.383843 -14.346220 18.335592
RightToeBase 14.106925 -0.000000 -0.000000
580
root -7.308084 40.566613 -12.570345 5.187047 -47.240729 46.038497
Spine 6.138123 5.682330 15.238424
Head -8.503143 -18.076882 -20.236670
LeftShoulder -19.640394 18.536039 -9.590498
LeftArm 6.304782 6.298366 -82.554107
LeftForeArm -2.590746 0.000000 9.666782
LeftHand -1.453513 -0.000000 -14.360081
LeftHandThumb1 -26.253704 0.000000 33.147579
RightShoulder -6.020378 9.540023 -40.158570
RightArm 20.532849 55.855031 45.265185
RightForeArm -10.437685 -0.000000 77.231030
RightHand -16.149762 -0.000000 -45.736731
RightHandThumb1 -24.326973 -0.000000 -32.862282
LeftUpLeg -13.482486 -4.759579 18.320794
LeftLeg 148.787674 -0.000000 -0.000000
LeftFoot 17.430706 0.582432 -26.600859
LeftToeBase 8.339289 -0.000000 -0.000000
RightUpLeg -46.467193 -12.122718 -17.144621
RightLeg 20.053070 -0.000000 -0.000000
RightFoot -25.623347 -14.088423 18.730841
RightToeBase 14.705359 -0.000000 -0.000000
581
root -7.304861 40.559382 -12.592323 5.090907 -47.319722 46.070052
Spine 6.290975 5.650576 15.370898
Head -8.571614 -18.358387 -20.131998
LeftShoulder -19.665682 18.561160 -9.636127
LeftArm 6.464241 6.447250 -82.686401
LeftForeArm -2.655279 -0.000000 9.515539
LeftHand -1.342709 -0.000000 -14.257102
LeftHandThumb1 -26.253704 0.000000 33.147579
RightShoulder -6.007131 9.599863 -40.258971
RightArm 20.549375 55.782149 45.212866
RightForeArm -10.658389 -0.000000 77.479045
RightHand -16.519733 -0.000000 -46.113951
RightHandThumb1 -24.326973 -0.000000 -32.862282
LeftUpLeg -13.507421 -4.612821 18.321822
LeftLeg 148.863811 -0.000000 -0.000000
LeftFoot 17.532256 0.596448 -27.011298
LeftToeBase 8.489246 -0.000000 -0.000000
RightUpLeg -46.487964 -12.112628 -17.088750
RightLeg 20.087542 -0.000000 -0.000000
RightFoot -25.771129 -13.907386 18.909170
RightToeBase 14.997136 -0.000000 -0.000000
582
root -7.297426 40.551976 -12.615064 5.022945 -47.405751 46.118797
Spine 6.381334 5.649382 15.464752
Head -8.595065 -18.626847 -19.980180
LeftShoulder -19.637371 18.544885 -9.617865
LeftArm 6.532992 6.506407 -82.849174
LeftForeArm -3.020637 -0.000000 9.358005
LeftHand -1.310092 -0.000000 -14.219958
LeftHandThumb1 -26.253704 0.000000 33.147579
RightShoulder -6.003950 9.608165 -40.325873
RightArm 20.665020 55.717719 45.240100
RightForeArm -10.846355 -0.000000 77.682929
RightHand -16.810933 -0.000000 -46.532297
RightHandThumb1 -24.326973 -0.000000 -32.862282
LeftUpLeg -13.550079 -4.515310 18.323669
LeftLeg 148.988732 -0.000000 -0.000000
LeftFoot 17.548659 0.411572 -27.560267
LeftToeBase 8.706505 -0.000000 -0.000000
RightUpLeg -46.568243 -12.124610 -17.026334
RightLeg 20.144949 -0.000000 -0.000000
RightFoot -25.929890 -13.638124 19.184746
RightToeBase 15.164332 -0.000000 -0.000000
583
root -7.290351 40.545018 -12.635096 4.966975 -47.512459 46.167787
Spine 6.440328 5.643971 15.576011
Head -8.578811 -18.858136 -19.893531
LeftShoulder -19.608228 18.532176 -9.617139
LeftArm 6.566812 6.502221 -83.018972
LeftForeArm -3.213705 -0.000000 9.235738
LeftHand -1.386613 0.000000 -14.256378
LeftHandThumb1 -26.253704 0.000000 33.147579
RightShoulder -5.964551 9.662761 -40.463411
RightArm 20.711758 55.625083 45.312083
RightForeArm -11.019390 0.000000 77.912131
RightHand -16.965524 -0.000000 -47.034218
RightHandThumb1 -24.326973 -0.000000 -32.862282
LeftUpLeg -13.624464 -4.196851 18.251038
LeftLeg 149.028303 -0.000000 -0.000000
LeftFoot 17.631567 0.546149 -27.493933
LeftToeBase 8.527008 -0.000000 -0.000000
RightUpLeg -46.670201 -12.128800 -16.961814
RightLeg 20.211698 -0.000000 -0.000000
RightFoot -26.079215 -13.399735 19.394292
RightToeBase 15.450264 -0.000000 -0.000000
584
root -7.283382 40.537585 -12.662216 4.988750 -47.598336 46.114988
Spine 6.514554 5.656831 15.754839
Head -8.624243 -19.194718 -19.735141
LeftShoulder -19.581378 18.590134 -9.644890
LeftArm 6.692610 6.508548 -83.189463
LeftForeArm -3.390990 0.000000 9.118650
LeftHand -1.305666 -0.000000 -14.212542
LeftHandThumb1 -26.253704 0.000000 33.147579
RightShoulder -5.956552 9.839213 -40.628352
RightArm 20.511468 55.442023 45.227337
RightForeArm -11.309159 0.000000 78.180876
RightHand -17.219110 0.000000 -47.476340
RightHandThumb1 -24.326973 -0.000000 -32.862282
LeftUpLeg -13.741538 -3.916422 18.282868
LeftLeg 149.108457 -0.000000 -0.000000
LeftFoot 17.694093 0.665016 -27.505173
LeftToeBase 8.835834 -0.000000 -0.000000
RightUpLeg -46.746612 -12.081502 -16.865210
RightLeg 20.255276 -0.000000 -0.000000
RightFoot -26.276787 -13.184095 19.722473
RightToeBase 15.874285 -0.000000 -0.000000
585
root -7.276515 40.532797 -12.683840 4.894914 -47.708670 46.120490
Spine 6.681883 5.671067 15.918796
Head -8.662129 -19.484678 -19.632035
LeftShoulder -19.508769 18.434905 -9.630263
LeftArm 6.614725 6.548290 -83.366684
LeftForeArm -3.357057 -0.000000 9.045746
LeftHand -1.367343 -0.000000 -14.155309
LeftHandThumb1 -26.253704 0.000000 33.147579
RightShoulder -5.939686 9.949457 -40.833227
RightArm 20.334740 55.282102 45.186913
RightForeArm -11.590043 -0.000000 78.461247
RightHand -17.565848 -0.000000 -48.160893
RightHandThumb1 -24.326973 -0.000000 -32.862282
LeftUpLeg -13.746722 -3.705114 18.256528
LeftLeg 149.187334 -0.000000 -0.000000
LeftFoot 17.676190 0.596243 -27.503391
LeftToeBase 8.770475 -0.000000 -0.000000
RightUpLeg -46.745786 -12.018576 -16.819120
RightLeg 20.268895 -0.000000 -0.000000
RightFoot -26.484734 -12.922489 20.086353
RightToeBase 16.152953 -0.000000 -0.000000
586
root -7.267014 40.527623 -12.707190 4.871638 -47.821917 46.119355
Spine 6.770956 5.698864 16.067487
Head -8.728430 -19.774148 -19.490037
LeftShoulder -19.503997 18.363453 -9.643051
LeftArm 6.644658 6.678405 -83.520147
LeftForeArm -3.584770 -0.000000 8.925181
LeftHand -1.322437 -0.000000 -14.029293
LeftHandThumb1 -26.253704 0.000000 33.147579
RightShoulder -5.949427 9.948836 -41.023433
RightArm 20.351788 55.194163 45.357433
RightForeArm -11.738715 -0.000000 78.783198
RightHand -17.805889 -0.000000 -48.626140
RightHandThumb1 -24.326973 -0.000000 -32.862282
LeftUpLeg -13.826695 -3.477242 18.238179
LeftLeg 149.279211 -0.000000 -0.000000
LeftFoot 17.697236 0.599879 -27.702044
LeftToeBase 8.527131 -0.000000 -0.000000
RightUpLeg -46.811541 -11.972923 -16.749292
RightLeg 20.285507 -0.000000 -0.000000
RightFoot -26.614259 -12.653570 20.317483
RightToeBase 15.993864 -0.000000 -0.000000
587
root -7.257982 40.523346 -12.729989 4.826448 -47.920061 46.082013
Spine 6.913482 5.711815 16.253349
Head -8.809599 -20.072626 -19.332301
LeftShoulder -19.454475 18.384983 -9.692800
LeftArm 6.743057 6.651507 -83.693485
LeftForeArm -3.632899 -0.000000 8.839436
LeftHand -1.236458 -0.000000 -13.905149
LeftHandThumb1 -26.253704 0.000000 33.147579
RightShoulder -5.934680 9.902773 -41.206407
RightArm 20.316201 55.180254 45.510083
RightForeArm -11.838571 -0.000000 79.159642
RightHand -17.903491 0.000000 -48.881773
RightHandThumb1 -24.326973 -0.000000 -32.862282
LeftUpLeg -13.882159 -3.224442 18.228253
LeftLeg 149.369724 -0.000000 -0.000000
LeftFoot 17.710165 0.710786 -27.802541
LeftToeBase 8.901697 -0.000000 -0.000000
RightUpLeg -46.813767 -11.926116 -16.674275
RightLeg 20.279763 -0.000000 -0.000000
RightFoot -26.848289 -12.369812 20.837562
RightToeBase 16.293621 -0.000000 -0.000000
